<?xml version="1.0" ?>
<!DOCTYPE svg  PUBLIC '-//W3C//DTD SVG 1.1//EN'  'http://www.w3.org/Graphics/SVG/1.1/DTD/svg11.dtd'>
<!-- Uploaded to: SVG Repo, www.svgrepo.com, Generator: SVG Repo Mixer Tools -->
<svg fill="#000000" width="800px" height="800px" viewBox="0 0 512 512" enable-background="new 0 0 512 512" id="Layer_1" version="1.1" xml:space="preserve" xmlns="http://www.w3.org/2000/svg" xmlns:xlink="http://www.w3.org/1999/xlink">
<g>
<g>
<path d="M443.57,370.959h-30.156c-5.522,0-10-4.477-10-10V183.346c0-5.523,4.478-10,10-10h30.156c5.522,0,10,4.477,10,10v177.613    C453.57,366.482,449.093,370.959,443.57,370.959z M423.414,350.959h10.156V193.346h-10.156V350.959z"/>
</g>
<g>
<g>
<path d="M195.664,379.367H49.713c-5.522,0-10-4.477-10-10v-185.81c0-5.523,4.478-10,10-10h145.951c5.522,0,10,4.477,10,10v185.81     C205.664,374.89,201.187,379.367,195.664,379.367z M59.713,359.367h125.951v-165.81H59.713V359.367z"/>
</g>
<g>
<path d="M195.664,286.462H49.713c-5.522,0-10-4.477-10-10s4.478-10,10-10h145.951c5.522,0,10,4.477,10,10     S201.187,286.462,195.664,286.462z"/>
</g>
<g>
<path d="M144.404,237.536h-43.43c-5.522,0-10-4.477-10-10s4.478-10,10-10h43.43c5.522,0,10,4.477,10,10     S149.927,237.536,144.404,237.536z"/>
</g>
<g>
<path d="M144.404,336.487h-43.436c-5.522,0-10-4.477-10-10s4.478-10,10-10h43.436c5.522,0,10,4.477,10,10     S149.927,336.487,144.404,336.487z"/>
</g>
</g>
<g>
<path d="M443.57,193.289H49.713c-5.522,0-10-4.477-10-10v-40.655c0-5.523,4.478-10,10-10H443.57c5.522,0,10,4.477,10,10v40.655    C453.57,188.812,449.093,193.289,443.57,193.289z M59.713,173.289H433.57v-20.655H59.713V173.289z"/>
</g>
<g>
<path d="M462.287,372.993h-74c-5.522,0-10-4.477-10-10s4.478-10,10-10h74c5.522,0,10,4.477,10,10S467.81,372.993,462.287,372.993z    "/>
</g>
</g>
</svg>